<svg width="16" height="12" viewBox="0 0 16 12" fill="none" xmlns="http://www.w3.org/2000/svg">
<path d="M11.5338 5H15.4662C15.6782 5 15.794 5.24721 15.6583 5.41005L13.6921 7.76953C13.5921 7.88947 13.4079 7.88947 13.3079 7.76953L11.3417 5.41005C11.206 5.24721 11.3218 5 11.5338 5Z" fill="#595959"/>
<path d="M0.533761 7H4.46624C4.6782 7 4.79399 6.75279 4.6583 6.58995L2.69206 4.23047C2.59211 4.11053 2.40789 4.11053 2.30795 4.23047L0.341706 6.58995C0.206013 6.75279 0.321802 7 0.533761 7Z" fill="#595959"/>
<path fill-rule="evenodd" clip-rule="evenodd" d="M8 1C6.44751 1 5.06057 1.70697 4.14269 2.81839C3.96685 3.03131 3.65169 3.06137 3.43877 2.88552C3.22586 2.70968 3.1958 2.39453 3.37164 2.18161C4.47134 0.850027 6.13662 0 8 0C10.9417 0 13.388 2.1165 13.9011 4.90967C13.9066 4.9397 13.9119 4.96981 13.917 5H12.9001C12.4371 2.71778 10.4186 1 8 1ZM3.09992 7C3.56293 9.28222 5.58137 11 8 11C9.55249 11 10.9394 10.293 11.8573 9.18161C12.0332 8.96869 12.3483 8.93863 12.5612 9.11448C12.7741 9.29032 12.8042 9.60547 12.6284 9.81839C11.5287 11.15 9.86338 12 8 12C5.0583 12 2.61198 9.8835 2.09892 7.09033C2.0934 7.0603 2.08811 7.03019 2.08304 7H3.09992Z" fill="#595959"/>
</svg>
