<svg width="385" height="197" viewBox="0 0 385 197" fill="none" xmlns="http://www.w3.org/2000/svg">
<g clip-path="url(#clip0_33_1101)">
<path d="M367.911 108.797L366.705 118.401L363.712 142.254H303.58C304.05 136.908 304.692 129.212 305.378 120.905C305.445 120.076 305.516 119.241 305.584 118.401C307.303 97.519 309.185 73.8889 309.185 73.8889L317.09 75.3616L332.428 78.2136L338.678 79.3751L355.414 82.4916C363.759 84.042 369.499 96.1241 367.911 108.797Z" fill="#F2F2F2"/>
<path d="M322.427 35.2473L329.822 48.1873L315.61 58.2596L309.547 42.3538L322.427 35.2473Z" fill="#FFB6B6"/>
<path d="M313.013 47.489C323.131 47.489 331.332 39.2874 331.332 29.1702C331.332 19.0529 323.131 10.8513 313.013 10.8513C302.896 10.8513 294.695 19.0529 294.695 29.1702C294.695 39.2874 302.896 47.489 313.013 47.489Z" fill="#FFB6B6"/>
<path d="M311.698 33.2655C310.243 31.0517 310.814 29.8939 309.596 29.0803C309.596 29.0803 309.106 28.7529 305.599 28.5663C304.814 22.9149 303.834 22.2295 303.834 22.2295C302.704 21.4396 301.028 21.6963 299.985 22.1794C297.779 23.2011 298.034 25.4081 296.549 25.8305C294.497 26.4139 290.764 23.1249 290.397 19.3596C290.097 16.2882 292.075 13.3051 292.86 13.4629C293.639 13.6194 295.502 11.2408 296.508 11.2775C297.195 11.3025 300.002 10.0825 300.757 10.1778C301.582 10.282 304.301 11.701 304.414 11.3768C305.201 9.12401 304.97 8.49896 305.638 7.85449C306.822 6.7125 308.758 7.50775 311.797 7.93469C318.048 8.81313 319.139 6.75192 322.343 8.14902C323.961 8.85477 325.315 10.7581 327.957 14.5359C331.652 19.8192 333.5 22.4608 333.512 25.5419C333.524 28.684 332.002 28.4845 331.334 33.1362C330.59 38.3143 332.171 40.6821 330.444 42.3643C329.109 43.6645 326.396 43.9731 324.971 42.832C322.53 40.8784 325.724 36.1642 323.024 32.72C321.366 30.6058 318.032 29.6651 316.505 30.7102C314.778 31.8919 315.729 35.3602 314.515 35.6891C313.475 35.9708 311.951 33.6513 311.698 33.2655Z" fill="#2F2E41"/>
<path d="M354.371 105.415C353.86 114.152 351.83 116.91 351.119 127.228C350.964 129.493 350.871 132.122 350.871 135.258C350.871 136.058 350.875 136.83 350.875 137.586C350.875 139.193 350.844 140.713 350.658 142.254C350.516 143.484 350.271 144.723 349.867 146.029H310.413C310.408 146.02 310.408 146.011 310.404 146.002C310.173 144.999 310.026 144.039 309.915 143.12C309.88 142.827 309.848 142.538 309.822 142.254C309.786 141.921 309.755 141.592 309.724 141.268C309.604 139.975 309.484 138.754 309.2 137.586C308.818 135.973 308.125 134.454 306.704 132.989C306.122 132.389 305.54 131.923 304.972 131.514C304.861 131.438 304.754 131.363 304.643 131.287C303.071 130.208 301.583 129.431 300.295 127.228C300.273 127.197 300.255 127.161 300.237 127.13C300.015 126.744 299.438 125.731 299.02 124.381C298.58 122.977 298.314 121.214 298.793 119.411C299.935 115.138 304.163 114.712 307.619 110.394C307.992 109.928 308.361 109.413 308.712 108.84C310.275 106.299 310.697 104.061 311.194 101.4C311.274 100.969 311.345 100.543 311.403 100.13C311.448 99.8188 311.488 99.5124 311.519 99.2103C311.794 96.6742 311.661 94.4889 311.337 92.5347C310.28 86.1343 307.161 82.1725 309.364 76.4294C310.057 74.6264 311.039 73.2715 312.029 72.1124C314.126 69.656 316.28 68.0616 315.907 64.8905C315.529 61.6924 313.104 61.2526 312.833 58.4588C312.696 57.0466 313.157 55.5586 314.024 54.0973V54.093C316.795 49.3892 323.715 45.0587 328.112 45.1964C328.925 45.2187 329.645 45.4007 330.244 45.7516C332.416 47.0307 331.51 49.8245 334.837 53.7421C337.311 56.6512 340.109 57.8149 341.171 58.3656C345.377 60.5599 348.797 67.0312 351.119 75.3058C351.137 75.3681 351.155 75.4301 351.173 75.4969C352.608 80.6802 353.62 86.5652 354.122 92.5347C354.335 95.0619 354.46 97.6026 354.486 100.116C354.509 102.124 354.464 103.865 354.371 105.415Z" fill="#25C70D"/>
<path d="M324.826 135.347L324.022 137.586L323.516 138.989L322.343 142.254L320.984 146.029H312.247L313.713 142.254L314.393 140.495L315.521 137.586L317.413 132.7L324.826 135.347Z" fill="#FFB6B6"/>
<path d="M351.258 74.5418C351.235 74.8306 351.204 75.1503 351.173 75.4969C350.827 79.0235 350.009 85.3349 348.815 92.5347C348.184 96.3321 347.447 100.379 346.616 104.398C344.831 113.072 342.61 121.614 340.1 127.228C339.652 128.241 339.19 129.156 338.719 129.964C338.359 130.581 337.981 131.19 337.586 131.789C336.307 133.757 334.872 135.622 333.385 137.364C333.327 137.439 333.26 137.51 333.194 137.586C332.954 137.87 332.705 138.15 332.456 138.429C331.239 139.802 329.996 141.081 328.792 142.254C327.326 143.684 325.914 144.95 324.648 146.029H310.461L310.404 146.002L308.361 145.096C308.361 145.096 308.942 144.412 309.915 143.12C310.115 142.858 310.328 142.569 310.56 142.254C310.844 141.867 311.15 141.441 311.479 140.979C312.163 140.011 312.94 138.874 313.775 137.586C315.392 135.094 317.235 132.029 319.096 128.48C319.309 128.067 319.527 127.65 319.745 127.228C319.749 127.215 319.758 127.201 319.762 127.188C320.131 126.468 320.495 125.727 320.859 124.971C323.946 118.549 324.83 113.219 325.084 111.491C325.439 109.049 325.932 105.633 325.798 101.875C325.709 99.397 325.35 96.7763 324.493 94.1736V94.1693C324.315 93.623 324.115 93.0767 323.889 92.5347C323.484 91.562 323.005 90.6026 322.436 89.6565C319.927 85.4904 317.888 85.3171 316.267 80.7777C315.787 79.432 314.699 76.3941 315.032 73.1872V73.1828C315.072 72.7875 315.139 72.3878 315.227 71.9879V71.9835C315.25 71.8725 315.281 71.7571 315.312 71.6461C315.565 70.6645 315.983 69.6916 316.618 68.7677C317.857 66.9735 319.549 65.9074 321.064 65.2724L321.068 65.2678C322.818 64.5395 324.328 64.384 324.622 64.3574C331.11 63.7801 336.143 69.2342 338.892 72.2145C339.954 73.3648 340.927 74.3288 341.815 75.1147C348.73 81.2887 350.627 77.3444 351.12 75.3058C351.195 74.9905 351.235 74.7196 351.258 74.5418Z" fill="#25C70D"/>
<path d="M351.28 74.311C351.28 74.3331 351.275 74.4086 351.258 74.5331C351.266 74.4663 351.271 74.3997 351.275 74.3374C351.275 74.3242 351.275 74.3153 351.28 74.311Z" fill="#25C70D"/>
<path d="M316.005 168.032H77.9141C75.702 168.032 73.8989 169.831 73.8989 172.043C73.8989 174.26 75.702 176.058 77.9141 176.058H316.005C318.216 176.058 320.015 174.26 320.015 172.043C320.015 169.831 318.216 168.032 316.005 168.032Z" fill="#E6E6E6"/>
<path d="M263.168 188.766H130.746C128.535 188.766 126.736 190.565 126.736 192.777C126.736 194.988 128.535 196.792 130.746 196.792H263.168C265.38 196.792 267.183 194.988 267.183 192.777C267.183 190.565 265.38 188.766 263.168 188.766Z" fill="#E6E6E6"/>
<path d="M104.408 36.0988L119.413 29.7839L125.849 42.9778L110.081 49.4138L104.408 36.0988Z" fill="#FFB6B6"/>
<path opacity="0.1" d="M104.408 36.0988L119.413 29.7839L125.849 42.9778L110.081 49.4138L104.408 36.0988Z" fill="black"/>
<path d="M106.541 31.0711L121.344 48.1266C121.344 48.1266 111.046 80.6286 100.748 83.5249C90.4506 86.4211 71.4643 100.58 71.4643 100.58L47.6509 85.1339L59.2358 68.0783C59.2358 68.0783 87.2326 29.7839 94.634 29.7839C102.035 29.7839 106.541 31.0711 106.541 31.0711Z" fill="#25C70D"/>
<path d="M86.5407 142.254H52.0821L49.9035 139.341L41.0089 127.451L38.9622 124.715C38.9622 124.715 31.239 110.556 32.848 97.6841C34.457 84.812 51.1907 81.9158 51.1907 81.9158H51.8794L72.3653 99.9174L71.1424 116.67L77.63 127.451L86.5407 142.254Z" fill="#2F2E41"/>
<path d="M59.1393 142.254H49.9036V128.577L59.1393 142.254Z" fill="#2F2E41"/>
<path d="M258.342 121.491L257.193 127.451L254.342 142.254H197.064C197.511 138.936 198.123 134.16 198.776 129.005C198.84 128.49 198.908 127.972 198.972 127.451C200.61 114.492 202.403 99.8273 202.403 99.8273L209.933 100.741L224.543 102.511L230.496 103.232L246.438 105.166C254.387 106.128 259.854 113.626 258.342 121.491Z" fill="#F2F2F2"/>
<path d="M339.4 142.254H308.333C308.806 141.697 309.073 141.375 309.073 141.375L318.386 139.837L337.575 136.67C337.575 136.67 338.451 138.933 339.4 142.254Z" fill="#2F2E41"/>
<path d="M207.624 42.5353L221.134 61.642L197.567 62.3458L195.038 44.39L207.624 42.5353Z" fill="#A0616A"/>
<path opacity="0.1" d="M207.624 42.5353L221.134 61.642L197.567 62.3458L195.038 44.39L207.624 42.5353Z" fill="black"/>
<path d="M140.996 82.123C139.262 77.1222 135.277 73.9631 132.094 75.0668C128.912 76.1706 127.738 81.1187 129.473 86.121C130.139 88.1288 131.275 89.9479 132.788 91.4263L140.401 112.522L150.224 108.739L141.677 88.3437C141.95 86.2455 141.716 84.1124 140.996 82.123Z" fill="#A0616A"/>
<path d="M232.448 72.3872L232.43 91.8595L230.618 99.0518L226.892 113.845L224.179 127.451L222.158 137.588L221.437 141.208C220.893 141.572 220.353 141.919 219.812 142.254H172.742C170.068 140.648 168.572 139.399 168.572 139.399C168.572 139.399 169.312 138.704 170.158 137.588C171.587 135.702 173.315 132.613 172.256 129.662C172.034 129.044 171.976 128.291 172.044 127.451C172.475 121.909 178.287 112.538 178.287 112.538L177.083 98.6302L176.555 92.5353L180.276 62.8167L192.405 55.766L194.499 55.5634L215.169 54.4468L223.712 54.9391L224.101 55.0453L232.448 72.3872Z" fill="#CCCCCC"/>
<path d="M233.366 142.254H223.069L222.615 137.588L222.605 137.494L225.521 137.295L233.106 136.777L233.238 139.57L233.341 141.713L233.366 142.254Z" fill="#FFB6B6"/>
<path d="M235.902 77.0953L240.227 102.476L236.697 127.451L236.147 131.338L235.175 138.202L234.876 140.313L234.885 140.542L234.959 142.254H222.731L222.28 137.588L222.242 137.169L221.321 127.612L221.305 127.451L219.352 107.184L223.181 92.5353L223.465 91.4573V91.4541L225.131 66.3728L223.84 54.9746L223.828 54.8683C223.853 54.8845 223.876 54.9006 223.902 54.9166C223.969 54.9585 224.037 55.0003 224.101 55.0454C231.618 59.8145 236.098 68.1813 235.902 77.0953Z" fill="#CCCCCC"/>
<path d="M184.658 67.6801L179.955 62.8163C179.955 62.8163 169.888 67.3545 169.387 69.8722C168.885 72.39 151.111 109.369 151.111 109.369L143.378 88.7164L133.313 95.4367C133.313 95.4367 141.389 127.501 148.943 129.007C156.496 130.512 181.811 91.055 181.811 91.055L184.658 67.6801Z" fill="#CCCCCC"/>
<path d="M375.597 127.228H9.39844C4.21516 127.228 0 131.447 0 136.63C0 141.814 4.21515 146.029 9.39844 146.029H375.597C380.78 146.029 385 141.814 385 136.63C385 131.447 380.78 127.228 375.597 127.228Z" fill="#E6E6E6"/>
<path d="M230.305 98.5761L229.593 131.8C229.524 135.016 226.897 137.588 223.681 137.588H162.563C159.423 137.588 156.83 135.132 156.658 131.996L154.842 98.7722C154.657 95.3842 157.354 92.5353 160.747 92.5353H224.393C227.708 92.5353 230.376 95.261 230.305 98.5761Z" fill="#3F3D56"/>
<path d="M131.641 44.1187C139.717 44.1187 146.264 37.572 146.264 29.4962C146.264 21.4205 139.717 14.8738 131.641 14.8738C123.565 14.8738 117.019 21.4205 117.019 29.4962C117.019 37.572 123.565 44.1187 131.641 44.1187Z" fill="#FFB6B6"/>
<path d="M107.185 67.7565L108.794 85.1339L119.735 129.221L110.282 132.534L94.3124 84.4903L92.1067 65.1821L107.185 67.7565Z" fill="#FFB6B6"/>
<path d="M102.832 98.5761L102.12 131.8C102.051 135.016 99.4243 137.588 96.2074 137.588H35.0902C31.9494 137.588 29.3564 135.132 29.1849 131.996L27.3686 98.7722C27.1834 95.3842 29.8808 92.5353 33.2739 92.5353H96.9194C100.235 92.5353 102.903 95.261 102.832 98.5761Z" fill="#3F3D56"/>
<path d="M121.477 137.812C127.855 137.812 133.025 135.525 133.025 132.704C133.025 129.883 127.855 127.597 121.477 127.597C115.099 127.597 109.929 129.883 109.929 132.704C109.929 135.525 115.099 137.812 121.477 137.812Z" fill="#FFB6B6"/>
<path d="M84.4973 70.4133L91.0943 35.2546C91.0943 35.2546 109.437 32.6801 110.081 38.7944C110.724 44.9086 109.621 74.7898 109.621 74.7898L84.4973 70.4133Z" fill="#25C70D"/>
<path d="M125.738 31.7954C125.738 31.7954 134.784 28.5671 138.599 26.8301C142.415 25.0932 149.995 37.2085 150.164 30.81C150.333 24.4115 147.713 21.7282 147.713 21.7282C147.713 21.7282 147.059 7.73057 132.957 9.48061C132.957 9.48061 136.059 2.47743 125.877 1.39451C115.695 0.311601 99.8538 24.8997 101.272 28.5743C102.691 32.2489 104.392 35.2868 100.367 39.2157C96.3419 43.1446 88.8053 65.3185 94.5395 71.2853C100.274 77.2521 100.65 79.8413 96.7211 83.5535C92.7923 87.2656 83.5056 95.3371 93.5467 96.7383C103.588 98.1396 92.628 97.093 100.114 90.5084C107.6 83.9239 118.523 84.1928 114.444 73.6284C110.366 63.0641 117.452 47.9254 116.565 45.6288C115.678 43.3322 118.552 28.7486 118.552 28.7486C118.552 28.7486 125.238 27.7662 125.738 31.7954Z" fill="#2F2E41"/>
<path d="M200.4 49.451C209.191 49.451 216.318 42.3244 216.318 33.5334C216.318 24.7423 209.191 17.6158 200.4 17.6158C191.609 17.6158 184.482 24.7423 184.482 33.5334C184.482 42.3244 191.609 49.451 200.4 49.451Z" fill="#A0616A"/>
<path d="M201.67 12.1332C201.21 12.4021 200.593 11.9953 200.445 11.4828C200.297 10.9704 200.469 10.4263 200.64 9.92097L201.499 7.37721C202.108 5.57312 202.754 3.70599 204.074 2.33284C206.065 0.2603 209.229 -0.266946 212.077 0.115025C215.735 0.605552 219.345 2.58634 221.046 5.86182C222.746 9.13732 222.022 13.7078 218.949 15.7514C223.329 20.7718 224.856 26.367 224.615 33.0253C224.374 39.6837 217.118 45.8115 212.386 50.5021C211.329 49.8615 210.369 46.8596 210.95 45.769C211.531 44.6785 210.698 43.415 211.418 42.4105C212.138 41.406 212.74 43.0055 212.012 42.0067C211.553 41.3764 213.345 39.9265 212.662 39.5492C209.362 37.7247 208.264 33.6104 206.191 30.4597C203.69 26.6595 199.41 24.0859 194.881 23.6589C192.386 23.4237 189.751 23.8497 187.706 25.2982C185.661 26.7466 184.337 29.3349 184.812 31.7956C183.583 30.5486 182.972 28.7211 183.203 26.9861C183.433 25.2512 184.501 23.6468 186.012 22.7639C185.093 19.7252 185.88 16.2298 188.013 13.8784C190.146 11.527 198.797 11.9275 201.911 12.5463L201.67 12.1332Z" fill="#2F2E41"/>
<path d="M202.154 23.7512C206.278 24.1964 209.256 27.7686 211.77 31.0676C213.219 32.9691 214.737 35.0689 214.701 37.4594C214.664 39.8762 213.048 41.9492 212.276 44.2396C211.014 47.9834 212.244 52.4376 215.249 55.0028C212.28 55.5662 209.07 53.34 208.557 50.3617C207.961 46.8946 210.589 43.5483 210.278 40.044C210.003 36.9567 207.57 34.5807 205.502 32.2723C203.434 29.9639 201.491 26.9008 202.443 23.951L202.154 23.7512Z" fill="#2F2E41"/>
<path d="M263.806 129.24C259.721 131.563 257.609 135.554 259.088 138.153C260.567 140.753 265.077 140.976 269.163 138.651C270.808 137.745 272.212 136.458 273.257 134.898L290.44 124.835L285.546 116.872L269.126 127.638C267.25 127.739 265.426 128.288 263.806 129.24Z" fill="#FFB6B6"/>
<path d="M321.985 55.449C321.471 55.2455 316.966 53.5392 312.852 55.7919C308.127 58.3797 307.397 64.2871 307.141 66.359C306.55 71.1453 308.292 72.2181 308.66 77.0635C309.348 86.1289 311.162 75.7871 308.265 79.925C307.262 81.3573 297.02 103.553 291.372 107.901C280.386 116.356 273.41 122.311 273.41 122.311L281.374 130.962C281.374 130.962 293.959 127.609 305.081 120.387C316.491 112.978 322.196 109.274 326.61 102.028C326.99 101.403 336.084 85.9597 331.2 68.8826C330.086 64.9873 328.045 57.8503 321.985 55.449Z" fill="#25C70D"/>
<path d="M363.109 98.5761L362.397 131.8C362.328 135.016 359.701 137.588 356.484 137.588H295.367C292.226 137.588 289.633 135.132 289.461 131.996L287.645 98.7722C287.46 95.3842 290.157 92.5353 293.55 92.5353H357.196C360.512 92.5353 363.18 95.261 363.109 98.5761Z" fill="#3F3D56"/>
</g>
<defs>
<clipPath id="clip0_33_1101">
<rect width="385" height="196.792" fill="white"/>
</clipPath>
</defs>
</svg>
