<svg width="208" height="107" viewBox="0 0 208 107" fill="none" xmlns="http://www.w3.org/2000/svg">
<g clip-path="url(#clip0_4_113)">
<path d="M198.298 58.64L197.648 63.8161L196.035 76.6725H163.625C163.878 73.791 164.224 69.6434 164.594 65.166C164.63 64.7189 164.668 64.2689 164.705 63.8161C165.632 52.5612 166.646 39.825 166.646 39.825L170.907 40.6187L179.174 42.1559L182.542 42.782L191.563 44.4617C196.06 45.2974 199.154 51.8094 198.298 58.64Z" fill="#F2F2F2"/>
<path d="M173.783 18.9977L177.769 25.9722L170.108 31.401L166.841 22.828L173.783 18.9977Z" fill="#FFB6B6"/>
<path d="M168.709 25.5959C174.162 25.5959 178.583 21.1753 178.583 15.7223C178.583 10.2693 174.162 5.84872 168.709 5.84872C163.256 5.84872 158.836 10.2693 158.836 15.7223C158.836 21.1753 163.256 25.5959 168.709 25.5959Z" fill="#FFB6B6"/>
<path d="M168 17.9296C167.216 16.7364 167.524 16.1123 166.868 15.6738C166.868 15.6738 166.603 15.4974 164.713 15.3968C164.29 12.3508 163.762 11.9814 163.762 11.9814C163.153 11.5556 162.249 11.694 161.687 11.9544C160.498 12.5051 160.636 13.6946 159.835 13.9223C158.73 14.2367 156.717 12.464 156.519 10.4345C156.358 8.7791 157.424 7.17126 157.847 7.25632C158.267 7.34065 159.271 6.05864 159.813 6.07841C160.183 6.09191 161.696 5.43432 162.103 5.48573C162.548 5.54189 164.013 6.30667 164.074 6.13194C164.499 4.91773 164.374 4.58084 164.734 4.23348C165.372 3.61796 166.416 4.04659 168.054 4.27671C171.423 4.75017 172.011 3.63921 173.738 4.39223C174.61 4.77261 175.34 5.79847 176.764 7.83466C178.755 10.6822 179.751 12.106 179.758 13.7667C179.764 15.4603 178.944 15.3527 178.584 17.8599C178.183 20.6508 179.035 21.927 178.104 22.8337C177.385 23.5345 175.922 23.7008 175.154 23.0858C173.839 22.0328 175.56 19.492 174.105 17.6356C173.211 16.4961 171.414 15.9891 170.591 16.5523C169.661 17.1892 170.173 19.0586 169.519 19.2359C168.958 19.3877 168.137 18.1375 168 17.9296Z" fill="#2F2E41"/>
<path d="M191 56.8171C190.725 61.526 189.631 63.0126 189.248 68.5737C189.164 69.7947 189.114 71.2118 189.114 72.902C189.114 73.3328 189.116 73.7494 189.116 74.1565C189.116 75.023 189.1 75.8418 188.999 76.6724C188.922 77.3356 188.791 78.0035 188.573 78.7073H167.308C167.305 78.7025 167.305 78.6977 167.303 78.6929C167.178 78.1519 167.099 77.6348 167.039 77.1393C167.02 76.9813 167.003 76.8257 166.989 76.6724C166.97 76.4929 166.953 76.3158 166.937 76.141C166.872 75.4444 166.807 74.786 166.654 74.1565C166.448 73.2874 166.075 72.4687 165.308 71.6787C164.995 71.3555 164.681 71.1042 164.375 70.884C164.315 70.8432 164.258 70.8025 164.198 70.7618C163.35 70.18 162.548 69.7611 161.854 68.5737C161.842 68.557 161.833 68.5378 161.823 68.5211C161.703 68.3128 161.392 67.7669 161.167 67.0393C160.93 66.2828 160.786 65.3323 161.045 64.3605C161.66 62.0575 163.939 61.8277 165.802 59.5007C166.003 59.2494 166.202 58.9717 166.391 58.6628C167.233 57.2935 167.461 56.087 167.729 54.653C167.772 54.4207 167.81 54.1909 167.841 53.9684C167.865 53.8007 167.887 53.6356 167.904 53.4727C168.052 52.1058 167.98 50.928 167.806 49.8747C167.236 46.425 165.555 44.2896 166.743 41.1942C167.116 40.2224 167.645 39.4922 168.179 38.8674C169.309 37.5435 170.47 36.6841 170.269 34.9749C170.065 33.2512 168.758 33.0142 168.612 31.5084C168.538 30.7472 168.787 29.9452 169.254 29.1576V29.1552C170.748 26.62 174.477 24.2859 176.847 24.3601C177.285 24.3721 177.673 24.4702 177.996 24.6593C179.167 25.3488 178.679 26.8546 180.472 28.9661C181.805 30.5341 183.313 31.1613 183.886 31.4581C186.153 32.6408 187.996 36.1287 189.248 40.5886C189.257 40.6222 189.267 40.6556 189.277 40.6916C190.05 43.4853 190.596 46.6573 190.866 49.8747C190.981 51.2368 191.048 52.6062 191.062 53.9611C191.075 55.0432 191.051 55.9817 191 56.8171Z" fill="#25C70D"/>
<path d="M175.076 72.9499L174.643 74.1565L174.37 74.9129L173.738 76.6724L173.005 78.7073H168.296L169.086 76.6724L169.453 75.7244L170.061 74.1565L171.08 71.5231L175.076 72.9499Z" fill="#FFB6B6"/>
<path d="M189.322 40.1768C189.31 40.3325 189.293 40.5048 189.277 40.6916C189.09 42.5924 188.649 45.9942 188.006 49.8747C187.666 51.9215 187.268 54.1024 186.82 56.2689C185.858 60.9442 184.661 65.5479 183.309 68.5737C183.067 69.1196 182.818 69.6128 182.564 70.0484C182.37 70.3812 182.167 70.7091 181.954 71.0323C181.264 72.0929 180.491 73.0984 179.689 74.0368C179.658 74.0774 179.622 74.1158 179.586 74.1565C179.457 74.3096 179.323 74.4605 179.189 74.6113C178.533 75.351 177.862 76.0404 177.214 76.6724C176.424 77.4433 175.662 78.1256 174.98 78.7073H167.334L167.303 78.6929L166.202 78.2045C166.202 78.2045 166.515 77.8358 167.039 77.1393C167.147 76.998 167.262 76.8424 167.387 76.6724C167.54 76.4641 167.705 76.2343 167.882 75.9853C168.251 75.4635 168.67 74.8507 169.12 74.1565C169.991 72.8134 170.985 71.1616 171.988 69.2489C172.103 69.0262 172.22 68.8012 172.337 68.5737C172.34 68.5666 172.344 68.5593 172.347 68.5522C172.545 68.1644 172.742 67.7646 172.938 67.3576C174.602 63.896 175.078 61.0232 175.215 60.0921C175.406 58.7754 175.672 56.9344 175.6 54.9091C175.552 53.5734 175.358 52.1609 174.896 50.7581V50.7557C174.801 50.4613 174.693 50.1668 174.571 49.8747C174.353 49.3505 174.094 48.8333 173.788 48.3234C172.435 46.078 171.337 45.9846 170.463 43.5379C170.204 42.8126 169.618 41.1752 169.797 39.4467V39.4444C169.819 39.2313 169.855 39.0158 169.903 38.8003V38.798C169.914 38.7381 169.931 38.6759 169.948 38.6161C170.084 38.087 170.31 37.5626 170.652 37.0647C171.32 36.0976 172.232 35.523 173.048 35.1807L173.051 35.1783C173.994 34.7858 174.808 34.702 174.966 34.6876C178.463 34.3764 181.176 37.3161 182.658 38.9224C183.23 39.5424 183.754 40.062 184.233 40.4856C187.96 43.8133 188.982 41.6874 189.248 40.5886C189.289 40.4187 189.31 40.2727 189.322 40.1768Z" fill="#25C70D"/>
<path d="M189.334 40.0524C189.334 40.0644 189.332 40.105 189.322 40.1721C189.327 40.1361 189.329 40.1002 189.332 40.0667C189.332 40.0596 189.332 40.0548 189.334 40.0524Z" fill="#25C70D"/>
<path d="M170.322 90.5669H41.9945C40.8022 90.5669 39.8304 91.5364 39.8304 92.7287C39.8304 93.9232 40.8022 94.8927 41.9945 94.8927H170.322C171.514 94.8927 172.483 93.9232 172.483 92.7287C172.483 91.5364 171.514 90.5669 170.322 90.5669Z" fill="#E6E6E6"/>
<path d="M141.843 101.742H70.4704C69.2782 101.742 68.3087 102.711 68.3087 103.903C68.3087 105.096 69.2782 106.068 70.4704 106.068H141.843C143.035 106.068 144.007 105.096 144.007 103.903C144.007 102.711 143.035 101.742 141.843 101.742Z" fill="#E6E6E6"/>
<path d="M56.2741 19.4567L64.3617 16.053L67.8307 23.1643L59.3318 26.6333L56.2741 19.4567Z" fill="#FFB6B6"/>
<path opacity="0.1" d="M56.2741 19.4567L64.3617 16.053L67.8307 23.1643L59.3318 26.6333L56.2741 19.4567Z" fill="black"/>
<path d="M57.4239 16.7468L65.4024 25.9395C65.4024 25.9395 59.8521 43.4575 54.3018 45.0186C48.7516 46.5796 38.5182 54.2112 38.5182 54.2112L25.6832 45.8858L31.9273 36.6931C31.9273 36.6931 47.0171 16.053 51.0064 16.053C54.9956 16.053 57.4239 16.7468 57.4239 16.7468Z" fill="#25C70D"/>
<path d="M46.6442 76.6725H28.0716L26.8973 75.1028L22.1033 68.694L21.0002 67.2197C21.0002 67.2197 16.8374 59.5881 17.7047 52.6502C18.5719 45.7124 27.5911 44.1513 27.5911 44.1513H27.9623L39.0039 53.8539L38.3448 62.8835L41.8415 68.694L46.6442 76.6725Z" fill="#2F2E41"/>
<path d="M31.8752 76.6725H26.8973V69.3011L31.8752 76.6725Z" fill="#2F2E41"/>
<path d="M139.242 65.4817L138.623 68.694L137.086 76.6725H106.214C106.455 74.8843 106.785 72.3103 107.137 69.5317C107.172 69.2542 107.208 68.975 107.243 68.694C108.126 61.7093 109.092 53.8053 109.092 53.8053L113.15 54.2979L121.025 55.2519L124.234 55.6404L132.826 56.6828C137.11 57.2014 140.057 61.2427 139.242 65.4817Z" fill="#F2F2F2"/>
<path d="M182.931 76.6725H166.187C166.442 76.3725 166.586 76.199 166.586 76.199L171.605 75.3699L181.948 73.6632C181.948 73.6632 182.42 74.8825 182.931 76.6725Z" fill="#2F2E41"/>
<path d="M111.906 22.9258L119.188 33.2241L106.486 33.6034L105.122 23.9255L111.906 22.9258Z" fill="#A0616A"/>
<path opacity="0.1" d="M111.906 22.9258L119.188 33.2241L106.486 33.6034L105.122 23.9255L111.906 22.9258Z" fill="black"/>
<path d="M75.9946 44.263C75.0602 41.5677 72.9121 39.865 71.1969 40.4599C69.4816 41.0548 68.849 43.7217 69.784 46.4179C70.1428 47.5 70.7555 48.4805 71.5708 49.2774L75.6739 60.6477L80.9687 58.6085L76.3616 47.6159C76.5088 46.485 76.3829 45.3353 75.9946 44.263Z" fill="#A0616A"/>
<path d="M125.286 39.0156L125.276 49.5108L124.3 53.3874L122.291 61.3607L120.829 68.694L119.74 74.1575L119.351 76.1088C119.058 76.3048 118.767 76.4921 118.475 76.6725H93.1052C91.6639 75.807 90.8574 75.134 90.8574 75.134C90.8574 75.134 91.2563 74.7594 91.7125 74.1575C92.4826 73.1412 93.414 71.4761 92.8433 69.8856C92.7237 69.5525 92.6925 69.1467 92.7289 68.694C92.9613 65.7072 96.0937 60.6565 96.0937 60.6565L95.445 53.1601L95.1606 49.8751L97.1662 33.8572L103.703 30.057L104.832 29.9478L115.972 29.346L120.577 29.6113L120.787 29.6686L125.286 39.0156Z" fill="#CCCCCC"/>
<path d="M125.781 76.6725H120.231L119.986 74.1575L119.981 74.1072L121.552 73.9997L125.64 73.7205L125.711 75.226L125.767 76.3811L125.781 76.6725Z" fill="#FFB6B6"/>
<path d="M127.147 41.5531L129.479 55.2328L127.576 68.694L127.279 70.7892L126.756 74.4888L126.594 75.6266L126.599 75.7498L126.639 76.6725H120.048L119.806 74.1575L119.785 73.9321L119.289 68.7807L119.28 68.694L118.227 57.7703L120.291 49.8751L120.444 49.294V49.2923L121.342 35.7739L120.646 29.6304L120.639 29.5732C120.653 29.5818 120.665 29.5905 120.679 29.5992C120.716 29.6217 120.752 29.6443 120.787 29.6686C124.839 32.2391 127.253 36.7487 127.147 41.5531Z" fill="#CCCCCC"/>
<path d="M99.5274 36.4785L96.9928 33.857C96.9928 33.857 91.5671 36.303 91.2967 37.6601C91.0262 39.0171 81.4465 58.9483 81.4465 58.9483L77.2787 47.8168L71.8535 51.4389C71.8535 51.4389 76.2066 68.7212 80.2777 69.5325C84.3488 70.3438 97.9933 49.0773 97.9933 49.0773L99.5274 36.4785Z" fill="#CCCCCC"/>
<path d="M202.441 68.5737H5.06561C2.2719 68.5737 0 70.848 0 73.6417C0 76.4354 2.2719 78.7073 5.06561 78.7073H202.441C205.235 78.7073 207.509 76.4355 207.509 73.6417C207.509 70.8479 205.235 68.5737 202.441 68.5737Z" fill="#E6E6E6"/>
<path d="M124.131 53.131L123.747 71.0382C123.71 72.7717 122.294 74.1575 120.56 74.1575H87.6191C85.9263 74.1575 84.5287 72.8343 84.4363 71.1439L83.4573 53.2367C83.3575 51.4106 84.8113 49.8751 86.6402 49.8751H120.944C122.731 49.8751 124.169 51.3442 124.131 53.131Z" fill="#3F3D56"/>
<path d="M70.9527 23.7793C75.3054 23.7793 78.8339 20.2507 78.8339 15.898C78.8339 11.5453 75.3054 8.01675 70.9527 8.01675C66.5999 8.01675 63.0714 11.5453 63.0714 15.898C63.0714 20.2507 66.5999 23.7793 70.9527 23.7793Z" fill="#FFB6B6"/>
<path d="M57.7708 36.5197L58.638 45.8858L64.5352 69.6479L59.4404 71.4336L50.8329 45.5389L49.6441 35.1321L57.7708 36.5197Z" fill="#FFB6B6"/>
<path d="M55.4249 53.131L55.0412 71.0382C55.0041 72.7717 53.5882 74.1575 51.8543 74.1575H18.9131C17.2203 74.1575 15.8227 72.8343 15.7303 71.1439L14.7513 53.2367C14.6515 51.4106 16.1053 49.8751 17.9342 49.8751H52.2381C54.0253 49.8751 55.4632 51.3442 55.4249 53.131Z" fill="#3F3D56"/>
<path d="M65.4742 74.2786C68.9117 74.2786 71.6984 73.046 71.6984 71.5255C71.6984 70.0051 68.9117 68.7725 65.4742 68.7725C62.0366 68.7725 59.25 70.0051 59.25 71.5255C59.25 73.046 62.0366 74.2786 65.4742 74.2786Z" fill="#FFB6B6"/>
<path d="M45.5428 37.9516L49.0985 19.0016C49.0985 19.0016 58.9849 17.614 59.3318 20.9095C59.6787 24.205 59.0839 40.3105 59.0839 40.3105L45.5428 37.9516Z" fill="#25C70D"/>
<path d="M67.7712 17.1372C67.7712 17.1372 72.6466 15.3972 74.7031 14.461C76.7596 13.5248 80.8452 20.0548 80.9361 16.6061C81.027 13.1574 79.6153 11.7112 79.6153 11.7112C79.6153 11.7112 79.2627 4.16665 71.6618 5.10989C71.6618 5.10989 73.3337 1.33529 67.8457 0.751619C62.3577 0.167946 53.8198 13.4206 54.5844 15.4011C55.349 17.3816 56.2656 19.019 54.0963 21.1367C51.927 23.2543 47.8648 35.2056 50.9555 38.4216C54.0461 41.6377 54.2489 43.0332 52.1313 45.034C50.0137 47.0348 45.0084 51.3852 50.4203 52.1404C55.8323 52.8957 49.9252 52.3316 53.9599 48.7826C57.9946 45.2336 63.8822 45.3786 61.6839 39.6846C59.4855 33.9905 63.3048 25.831 62.8269 24.5932C62.349 23.3554 63.8976 15.495 63.8976 15.495C63.8976 15.495 67.5017 14.9655 67.7712 17.1372Z" fill="#2F2E41"/>
<path d="M108.012 26.6533C112.751 26.6533 116.592 22.8122 116.592 18.0739C116.592 13.3357 112.751 9.4946 108.012 9.4946C103.274 9.4946 99.433 13.3357 99.433 18.0739C99.433 22.8122 103.274 26.6533 108.012 26.6533Z" fill="#A0616A"/>
<path d="M108.697 6.53962C108.449 6.68453 108.116 6.46528 108.037 6.18907C107.957 5.91286 108.05 5.6196 108.142 5.34725L108.605 3.9762C108.933 3.00382 109.281 1.99747 109.992 1.25737C111.066 0.140297 112.771 -0.14388 114.306 0.0619966C116.278 0.326383 118.223 1.394 119.14 3.15943C120.057 4.92487 119.666 7.38828 118.01 8.48974C120.371 11.1957 121.194 14.2114 121.064 17.8001C120.934 21.3889 117.023 24.6917 114.473 27.2198C113.903 26.8746 113.385 25.2566 113.699 24.6688C114.012 24.081 113.563 23.4 113.951 22.8586C114.339 22.3172 114.663 23.1793 114.271 22.6409C114.024 22.3012 114.989 21.5197 114.622 21.3164C112.843 20.333 112.251 18.1155 111.133 16.4173C109.786 14.369 107.479 12.9819 105.038 12.7518C103.693 12.625 102.273 12.8546 101.171 13.6353C100.068 14.416 99.3549 15.811 99.6105 17.1373C98.9486 16.4652 98.6191 15.4802 98.7433 14.5451C98.8676 13.61 99.4429 12.7452 100.257 12.2694C99.7622 10.6316 100.186 8.74763 101.336 7.48024C102.486 6.21286 107.149 6.42872 108.827 6.76228L108.697 6.53962Z" fill="#2F2E41"/>
<path d="M108.958 12.8015C111.18 13.0415 112.785 14.9668 114.14 16.7449C114.922 17.7698 115.74 18.9016 115.72 20.19C115.7 21.4926 114.829 22.6099 114.413 23.8444C113.733 25.8623 114.396 28.263 116.015 29.6456C114.415 29.9493 112.685 28.7494 112.409 27.1441C112.087 25.2754 113.504 23.4718 113.336 21.5831C113.188 19.9191 111.877 18.6384 110.762 17.3942C109.647 16.1501 108.6 14.4991 109.113 12.9092L108.958 12.8015Z" fill="#2F2E41"/>
<path d="M142.187 69.6581C139.986 70.9104 138.847 73.0614 139.644 74.4624C140.441 75.8635 142.872 75.9837 145.074 74.7308C145.961 74.2423 146.718 73.5486 147.281 72.7078L156.543 67.2841L153.905 62.9922L145.055 68.7947C144.044 68.8493 143.06 69.1454 142.187 69.6581Z" fill="#FFB6B6"/>
<path d="M173.545 29.8861C173.268 29.7764 170.84 28.8568 168.623 30.071C166.076 31.4657 165.682 34.6497 165.544 35.7665C165.226 38.3462 166.165 38.9244 166.363 41.536C166.734 46.4221 167.711 40.848 166.15 43.0783C165.609 43.8503 160.089 55.8136 157.045 58.1569C151.124 62.7143 147.364 65.9238 147.364 65.9238L151.656 70.5866C151.656 70.5866 158.439 68.7793 164.434 64.8866C170.584 60.8935 173.659 58.897 176.037 54.9912C176.242 54.6549 181.144 46.3309 178.512 37.1266C177.911 35.0271 176.811 31.1804 173.545 29.8861Z" fill="#25C70D"/>
<path d="M195.71 53.131L195.326 71.0382C195.289 72.7717 193.873 74.1575 192.139 74.1575H159.198C157.505 74.1575 156.107 72.8343 156.015 71.1439L155.036 53.2367C154.936 51.4106 156.39 49.8751 158.219 49.8751H192.523C194.31 49.8751 195.748 51.3442 195.71 53.131Z" fill="#3F3D56"/>
</g>
<defs>
<clipPath id="clip0_4_113">
<rect width="207.509" height="106.068" fill="white"/>
</clipPath>
</defs>
</svg>
