<svg width="14" height="16" viewBox="0 0 14 16" fill="" xmlns="http://www.w3.org/2000/svg">
<path d="M9.25 0.5C9.25 0.223857 8.99816 0 8.6875 0H5.3125C5.00184 0 4.75 0.223857 4.75 0.5C4.75 0.776142 4.49816 1 4.1875 1C3.87684 1 3.625 1.22386 3.625 1.5V2C3.625 2.27614 3.87684 2.5 4.1875 2.5H9.8125C10.1232 2.5 10.375 2.27614 10.375 2V1.5C10.375 1.22386 10.1232 1 9.8125 1C9.50184 1 9.25 0.776142 9.25 0.5Z" fill=""/>
<path d="M2.59602 1H1.9375C1.00552 1 0.25 1.67157 0.25 2.5V14.5C0.25 15.3284 1.00552 16 1.9375 16H12.0625C12.9945 16 13.75 15.3284 13.75 14.5V2.5C13.75 1.67157 12.9945 1 12.0625 1H11.404C11.4662 1.15639 11.5 1.32468 11.5 1.5V2C11.5 2.82843 10.7445 3.5 9.8125 3.5H4.1875C3.25552 3.5 2.5 2.82843 2.5 2V1.5C2.5 1.32468 2.53384 1.15639 2.59602 1ZM7.5625 6.5V8H9.25C9.56066 8 9.8125 8.22386 9.8125 8.5C9.8125 8.77614 9.56066 9 9.25 9H7.5625V10.5C7.5625 10.7761 7.31066 11 7 11C6.68934 11 6.4375 10.7761 6.4375 10.5V9H4.75C4.43934 9 4.1875 8.77614 4.1875 8.5C4.1875 8.22386 4.43934 8 4.75 8H6.4375V6.5C6.4375 6.22386 6.68934 6 7 6C7.31066 6 7.5625 6.22386 7.5625 6.5Z" fill=""/>
</svg>
